<mxfile host="app.diagrams.net" agent="Mozilla/5.0 (Windows NT 10.0; Win64; x64) AppleWebKit/537.36 (KHTML, like Gecko) Chrome/130.0.0.0 Safari/537.36" version="24.8.3">
  <diagram id="C5RBs43oDa-KdzZeNtuy" name="Page-1">
    <mxGraphModel dx="880" dy="478" grid="1" gridSize="10" guides="1" tooltips="1" connect="1" arrows="1" fold="1" page="1" pageScale="1" pageWidth="827" pageHeight="1169" math="0" shadow="0">
      <root>
        <mxCell id="WIyWlLk6GJQsqaUBKTNV-0" />
        <mxCell id="WIyWlLk6GJQsqaUBKTNV-1" parent="WIyWlLk6GJQsqaUBKTNV-0" />
        <mxCell id="AUlWfMTpm140idI0EFFj-174" value="Mulai Program" style="rounded=1;arcSize=40;strokeWidth=2" vertex="1" parent="WIyWlLk6GJQsqaUBKTNV-1">
          <mxGeometry x="190" y="20" width="129" height="52" as="geometry" />
        </mxCell>
        <mxCell id="AUlWfMTpm140idI0EFFj-175" value="Inisialisasi Serial Monitor" style="rounded=1;arcSize=40;strokeWidth=2" vertex="1" parent="WIyWlLk6GJQsqaUBKTNV-1">
          <mxGeometry x="152" y="122" width="204" height="52" as="geometry" />
        </mxCell>
        <mxCell id="AUlWfMTpm140idI0EFFj-176" value="Menghubungkan ke WiFi" style="rounded=1;arcSize=40;strokeWidth=2" vertex="1" parent="WIyWlLk6GJQsqaUBKTNV-1">
          <mxGeometry x="154" y="224" width="200" height="52" as="geometry" />
        </mxCell>
        <mxCell id="AUlWfMTpm140idI0EFFj-177" value="WiFi Terhubung?" style="rhombus;strokeWidth=2;whiteSpace=wrap;" vertex="1" parent="WIyWlLk6GJQsqaUBKTNV-1">
          <mxGeometry x="170" y="326" width="168" height="168" as="geometry" />
        </mxCell>
        <mxCell id="AUlWfMTpm140idI0EFFj-178" value="Tampilkan Alamat IP ESP8266" style="rounded=1;arcSize=40;strokeWidth=2" vertex="1" parent="WIyWlLk6GJQsqaUBKTNV-1">
          <mxGeometry x="49" y="570" width="170" height="70" as="geometry" />
        </mxCell>
        <mxCell id="AUlWfMTpm140idI0EFFj-179" value="Tunggu Sampai Terhubung" style="rounded=1;arcSize=40;strokeWidth=2" vertex="1" parent="WIyWlLk6GJQsqaUBKTNV-1">
          <mxGeometry x="269" y="579" width="210" height="52" as="geometry" />
        </mxCell>
        <mxCell id="AUlWfMTpm140idI0EFFj-180" value="Mulai Web Server pada Port 80" style="rounded=1;arcSize=40;strokeWidth=2" vertex="1" parent="WIyWlLk6GJQsqaUBKTNV-1">
          <mxGeometry x="20" y="690" width="228" height="70" as="geometry" />
        </mxCell>
        <mxCell id="AUlWfMTpm140idI0EFFj-181" value="Loop Utama" style="rhombus;strokeWidth=2;whiteSpace=wrap;" vertex="1" parent="WIyWlLk6GJQsqaUBKTNV-1">
          <mxGeometry x="66" y="809" width="137" height="137" as="geometry" />
        </mxCell>
        <mxCell id="AUlWfMTpm140idI0EFFj-182" value="Client Terhubung?" style="rounded=1;arcSize=40;strokeWidth=2" vertex="1" parent="WIyWlLk6GJQsqaUBKTNV-1">
          <mxGeometry x="57" y="1022" width="155" height="52" as="geometry" />
        </mxCell>
        <mxCell id="AUlWfMTpm140idI0EFFj-183" value="Tampilkan Halaman Web" style="rounded=1;arcSize=40;strokeWidth=2" vertex="1" parent="WIyWlLk6GJQsqaUBKTNV-1">
          <mxGeometry x="34" y="1150" width="201" height="52" as="geometry" />
        </mxCell>
        <mxCell id="AUlWfMTpm140idI0EFFj-184" value="Menampilkan Data Pengguna" style="rounded=1;arcSize=40;strokeWidth=2" vertex="1" parent="WIyWlLk6GJQsqaUBKTNV-1">
          <mxGeometry x="20" y="1252" width="228" height="52" as="geometry" />
        </mxCell>
        <mxCell id="AUlWfMTpm140idI0EFFj-185" value="Menunggu 1 Detik" style="rounded=1;arcSize=40;strokeWidth=2" vertex="1" parent="WIyWlLk6GJQsqaUBKTNV-1">
          <mxGeometry x="57" y="1354" width="154" height="52" as="geometry" />
        </mxCell>
        <mxCell id="AUlWfMTpm140idI0EFFj-186" value="Tutup Koneksi Client" style="rounded=1;arcSize=40;strokeWidth=2" vertex="1" parent="WIyWlLk6GJQsqaUBKTNV-1">
          <mxGeometry x="47" y="1456" width="174" height="52" as="geometry" />
        </mxCell>
        <mxCell id="AUlWfMTpm140idI0EFFj-187" value="Client Terputus" style="rounded=1;arcSize=40;strokeWidth=2" vertex="1" parent="WIyWlLk6GJQsqaUBKTNV-1">
          <mxGeometry x="66" y="1558" width="136" height="52" as="geometry" />
        </mxCell>
        <mxCell id="AUlWfMTpm140idI0EFFj-188" value="" style="curved=1;startArrow=none;endArrow=block;exitX=0.5;exitY=1;entryX=0.5;entryY=0;rounded=0;" edge="1" parent="WIyWlLk6GJQsqaUBKTNV-1" source="AUlWfMTpm140idI0EFFj-174" target="AUlWfMTpm140idI0EFFj-175">
          <mxGeometry relative="1" as="geometry">
            <Array as="points" />
          </mxGeometry>
        </mxCell>
        <mxCell id="AUlWfMTpm140idI0EFFj-189" value="" style="curved=1;startArrow=none;endArrow=block;exitX=0.5;exitY=1;entryX=0.5;entryY=0;rounded=0;" edge="1" parent="WIyWlLk6GJQsqaUBKTNV-1" source="AUlWfMTpm140idI0EFFj-175" target="AUlWfMTpm140idI0EFFj-176">
          <mxGeometry relative="1" as="geometry">
            <Array as="points" />
          </mxGeometry>
        </mxCell>
        <mxCell id="AUlWfMTpm140idI0EFFj-190" value="" style="curved=1;startArrow=none;endArrow=block;exitX=0.5;exitY=1;entryX=0.5;entryY=0;rounded=0;" edge="1" parent="WIyWlLk6GJQsqaUBKTNV-1" source="AUlWfMTpm140idI0EFFj-176" target="AUlWfMTpm140idI0EFFj-177">
          <mxGeometry relative="1" as="geometry">
            <Array as="points" />
          </mxGeometry>
        </mxCell>
        <mxCell id="AUlWfMTpm140idI0EFFj-191" value="Ya" style="curved=1;startArrow=none;endArrow=block;exitX=0.01;exitY=1;entryX=0.5;entryY=0;rounded=0;" edge="1" parent="WIyWlLk6GJQsqaUBKTNV-1" source="AUlWfMTpm140idI0EFFj-177" target="AUlWfMTpm140idI0EFFj-178">
          <mxGeometry relative="1" as="geometry">
            <Array as="points">
              <mxPoint x="134" y="532" />
            </Array>
          </mxGeometry>
        </mxCell>
        <mxCell id="AUlWfMTpm140idI0EFFj-192" value="Tidak" style="curved=1;startArrow=none;endArrow=block;exitX=0.99;exitY=1;entryX=0.5;entryY=0;rounded=0;" edge="1" parent="WIyWlLk6GJQsqaUBKTNV-1" source="AUlWfMTpm140idI0EFFj-177" target="AUlWfMTpm140idI0EFFj-179">
          <mxGeometry relative="1" as="geometry">
            <Array as="points">
              <mxPoint x="374" y="532" />
            </Array>
          </mxGeometry>
        </mxCell>
        <mxCell id="AUlWfMTpm140idI0EFFj-193" value="" style="curved=1;startArrow=none;endArrow=block;exitX=0.5;exitY=0.99;entryX=0.5;entryY=-0.01;rounded=0;" edge="1" parent="WIyWlLk6GJQsqaUBKTNV-1" source="AUlWfMTpm140idI0EFFj-178" target="AUlWfMTpm140idI0EFFj-180">
          <mxGeometry relative="1" as="geometry">
            <Array as="points" />
          </mxGeometry>
        </mxCell>
        <mxCell id="AUlWfMTpm140idI0EFFj-194" value="" style="curved=1;startArrow=none;endArrow=block;exitX=0.5;exitY=0.99;entryX=0.5;entryY=0;rounded=0;" edge="1" parent="WIyWlLk6GJQsqaUBKTNV-1" source="AUlWfMTpm140idI0EFFj-180" target="AUlWfMTpm140idI0EFFj-181">
          <mxGeometry relative="1" as="geometry">
            <Array as="points" />
          </mxGeometry>
        </mxCell>
        <mxCell id="AUlWfMTpm140idI0EFFj-195" value="" style="curved=1;startArrow=none;endArrow=block;exitX=0.4;exitY=1;entryX=0.44;entryY=0;rounded=0;" edge="1" parent="WIyWlLk6GJQsqaUBKTNV-1" source="AUlWfMTpm140idI0EFFj-181" target="AUlWfMTpm140idI0EFFj-182">
          <mxGeometry relative="1" as="geometry">
            <Array as="points">
              <mxPoint x="114" y="984" />
            </Array>
          </mxGeometry>
        </mxCell>
        <mxCell id="AUlWfMTpm140idI0EFFj-196" value="Ya" style="curved=1;startArrow=none;endArrow=block;exitX=0.5;exitY=1;entryX=0.5;entryY=0;rounded=0;" edge="1" parent="WIyWlLk6GJQsqaUBKTNV-1" source="AUlWfMTpm140idI0EFFj-182" target="AUlWfMTpm140idI0EFFj-183">
          <mxGeometry relative="1" as="geometry">
            <Array as="points" />
          </mxGeometry>
        </mxCell>
        <mxCell id="AUlWfMTpm140idI0EFFj-197" value="" style="curved=1;startArrow=none;endArrow=block;exitX=0.5;exitY=1;entryX=0.5;entryY=0;rounded=0;" edge="1" parent="WIyWlLk6GJQsqaUBKTNV-1" source="AUlWfMTpm140idI0EFFj-183" target="AUlWfMTpm140idI0EFFj-184">
          <mxGeometry relative="1" as="geometry">
            <Array as="points" />
          </mxGeometry>
        </mxCell>
        <mxCell id="AUlWfMTpm140idI0EFFj-198" value="" style="curved=1;startArrow=none;endArrow=block;exitX=0.5;exitY=1;entryX=0.5;entryY=0;rounded=0;" edge="1" parent="WIyWlLk6GJQsqaUBKTNV-1" source="AUlWfMTpm140idI0EFFj-184" target="AUlWfMTpm140idI0EFFj-185">
          <mxGeometry relative="1" as="geometry">
            <Array as="points" />
          </mxGeometry>
        </mxCell>
        <mxCell id="AUlWfMTpm140idI0EFFj-199" value="" style="curved=1;startArrow=none;endArrow=block;exitX=0.5;exitY=1;entryX=0.5;entryY=0;rounded=0;" edge="1" parent="WIyWlLk6GJQsqaUBKTNV-1" source="AUlWfMTpm140idI0EFFj-185" target="AUlWfMTpm140idI0EFFj-186">
          <mxGeometry relative="1" as="geometry">
            <Array as="points" />
          </mxGeometry>
        </mxCell>
        <mxCell id="AUlWfMTpm140idI0EFFj-200" value="" style="curved=1;startArrow=none;endArrow=block;exitX=0.5;exitY=1;entryX=0.5;entryY=0;rounded=0;" edge="1" parent="WIyWlLk6GJQsqaUBKTNV-1" source="AUlWfMTpm140idI0EFFj-186" target="AUlWfMTpm140idI0EFFj-187">
          <mxGeometry relative="1" as="geometry">
            <Array as="points" />
          </mxGeometry>
        </mxCell>
        <mxCell id="AUlWfMTpm140idI0EFFj-201" value="Tidak" style="curved=1;startArrow=none;endArrow=block;exitX=0.55;exitY=0;entryX=0.59;entryY=1;rounded=0;" edge="1" parent="WIyWlLk6GJQsqaUBKTNV-1" source="AUlWfMTpm140idI0EFFj-182" target="AUlWfMTpm140idI0EFFj-181">
          <mxGeometry relative="1" as="geometry">
            <Array as="points">
              <mxPoint x="155" y="984" />
            </Array>
          </mxGeometry>
        </mxCell>
      </root>
    </mxGraphModel>
  </diagram>
</mxfile>
